# File produced by Open Asset Import Library (http://www.assimp.sf.net)
# (assimp v5.4.3276931299)

mtllib link0.mtl

# 948 vertex positions
v -0.0199999455 0.0219999999 -0.0543260202
v -0.0291409492 0.0219999999 -0.0500310287
v -0.0199999455 0.0399999991 -0.0543260202
v -0.0199999455 0.0399999991 -0.0543260202
v -0.0291409492 0.0219999999 -0.0500310287
v -0.0289999489 0.0500000007 -0.0501120314
v -0.0199999455 0.0399999991 -0.0543260202
v -0.0289999489 0.0500000007 -0.0501120314
v -0.0198369455 0.0500000007 -0.0543850176
v -0.0289999489 0.0500000007 -0.0501120314
v -0.0291409492 0.0219999999 -0.0500310287
v -0.0372819565 0.0500000007 -0.044314038
v -0.0372819565 0.0500000007 -0.044314038
v -0.0291409492 0.0219999999 -0.0500310287
v -0.0373979546 0.0219999999 -0.0442160368
v -0.0372819565 0.0500000007 -0.044314038
v -0.0373979546 0.0219999999 -0.0442160368
v -0.0444309637 0.0500000007 -0.0371650457
v -0.0444309637 0.0500000007 -0.0371650457
v -0.0373979546 0.0219999999 -0.0442160368
v -0.044520963 0.0219999999 -0.0370570458
v -0.0444309637 0.0500000007 -0.0371650457
v -0.044520963 0.0219999999 -0.0370570458
v -0.050228972 0.0500000007 -0.0288830493
v -0.050228972 0.0500000007 -0.0288830493
v -0.044520963 0.0219999999 -0.0370570458
v -0.0502939709 0.0219999999 -0.02877005
v -0.050228972 0.0500000007 -0.0288830493
v -0.0502939709 0.0219999999 -0.02877005
v -0.0545019805 0.0500000007 -0.0197200533
v -0.0545019805 0.0500000007 -0.0197200533
v -0.0502939709 0.0219999999 -0.02877005
v -0.0545429811 0.0219999999 -0.0196080543
v -0.0545019805 0.0500000007 -0.0197200533
v -0.0545429811 0.0219999999 -0.0196080543
v -0.0571189895 0.0500000007 -0.00995505694
v -0.0571189895 0.0500000007 -0.00995505694
v -0.0545429811 0.0219999999 -0.0196080543
v -0.0571379885 0.0219999999 -0.00984805636
v -0.0571189895 0.0500000007 -0.00995505694
v -0.0571379885 0.0219999999 -0.00984805636
v -0.0579999983 0.0500000007 0.000116942007
v -0.0579999983 0.0500000007 0.000116942007
v -0.0571379885 0.0219999999 -0.00984805636
v -0.0579999983 0.0219999999 0.000214942003
v -0.0579999983 0.0500000007 0.000116942007
v -0.0579999983 0.0219999999 0.000214942003
v -0.0571190119 0.0500000007 0.0101889437
v -0.0571190119 0.0500000007 0.0101889437
v -0.0579999983 0.0219999999 0.000214942003
v -0.0571040101 0.0219999999 0.0102739437
v -0.0571190119 0.0500000007 0.0101889437
v -0.0571040101 0.0219999999 0.0102739437
v -0.0545020178 0.0500000007 0.0199539457
v -0.0545020178 0.0500000007 0.0199539457
v -0.0571040101 0.0219999999 0.0102739437
v -0.054476019 0.0219999999 0.020024946
v -0.0545020178 0.0500000007 0.0199539457
v -0.054476019 0.0219999999 0.020024946
v -0.0502290316 0.0500000007 0.0291169491
v -0.0502290316 0.0500000007 0.0291169491
v -0.054476019 0.0219999999 0.020024946
v -0.0501970313 0.0219999999 0.0291729495
v -0.0502290316 0.0500000007 0.0291169491
v -0.0501970313 0.0219999999 0.0291729495
v -0.0444310382 0.0500000007 0.0373989567
v -0.0444310382 0.0500000007 0.0373989567
v -0.0501970313 0.0219999999 0.0291729495
v -0.0443960391 0.0219999999 0.0374399573
v -0.0444310382 0.0500000007 0.0373989567
v -0.0443960391 0.0219999999 0.0374399573
v -0.0372820459 0.0500000007 0.0445479639
v -0.0372820459 0.0500000007 0.0445479639
v -0.0443960391 0.0219999999 0.0374399573
v -0.0372480452 0.0219999999 0.0445749648
v -0.0372820459 0.0500000007 0.0445479639
v -0.0372480452 0.0219999999 0.0445749648
v -0.0290000495 0.0500000007 0.0503459722
v -0.0290000495 0.0500000007 0.0503459722
v -0.0372480452 0.0219999999 0.0445749648
v -0.0289720502 0.0219999999 0.0503629707
v -0.0290000495 0.0500000007 0.0503459722
v -0.0289720502 0.0219999999 0.0503629707
v -0.0198370535 0.0500000007 0.0546189807
v -0.0198370535 0.0500000007 0.0546189807
v -0.0289720502 0.0219999999 0.0503629707
v -0.0198170543 0.0219999999 0.0546269827
v -0.0198370535 0.0500000007 0.0546189807
v -0.0198170543 0.0219999999 0.0546269827
v -0.0100720571 0.0500000007 0.0572359897
v -0.0100720571 0.0500000007 0.0572359897
v -0.0198170543 0.0219999999 0.0546269827
v -0.0100610564 0.0219999999 0.0572379902
v -0.0100720571 0.0500000007 0.0572359897
v -0.0100610564 0.0219999999 0.0572379902
v -5.79999977e-08 0.0500000007 0.0581169985
v -5.79999977e-08 0.0500000007 0.0581169985
v -0.0100610564 0.0219999999 0.0572379902
v -5.79999977e-08 0.0219999999 0.0581169985
v -0.0199999455 0.0399999991 -0.0543260202
v -0.0198369455 0.0500000007 -0.0543850176
v -0.0134879434 0.0399999991 -0.0562930144
v -0.0134879434 0.0399999991 -0.0562930144
v -0.0198369455 0.0500000007 -0.0543850176
v -0.0100719435 0.0500000007 -0.0570020117
v -0.0134879434 0.0399999991 -0.0562930144
v -0.0100719435 0.0500000007 -0.0570020117
v -0.00679094205 0.0399999991 -0.0574840084
v -0.00679094205 0.0399999991 -0.0574840084
v -0.0100719435 0.0500000007 -0.0570020117
v 5.79999977e-08 0.0500000007 -0.0578829981
v -0.00679094205 0.0399999991 -0.0574840084
v 5.79999977e-08 0.0500000007 -0.0578829981
v 5.79999977e-08 0.0399999991 -0.0578829981
v 5.79999977e-08 0.0500000007 -0.0578829981
v -0.0100719435 0.0500000007 -0.0570020117
v 0.0100720571 0.0500000007 -0.0570019893
v 0.0100720571 0.0500000007 -0.0570019893
v -0.0100719435 0.0500000007 -0.0570020117
v 0.0198370535 0.0500000007 -0.0543849804
v 0.0198370535 0.0500000007 -0.0543849804
v -0.0100719435 0.0500000007 -0.0570020117
v -0.0198369455 0.0500000007 -0.0543850176
v 0.0198370535 0.0500000007 -0.0543849804
v -0.0198369455 0.0500000007 -0.0543850176
v 0.0290000495 0.0500000007 -0.0501119718
v 0.0290000495 0.0500000007 -0.0501119718
v -0.0198369455 0.0500000007 -0.0543850176
v -0.0289999489 0.0500000007 -0.0501120314
v 0.0290000495 0.0500000007 -0.0501119718
v -0.0289999489 0.0500000007 -0.0501120314
v 0.0372820459 0.0500000007 -0.0443139635
v 0.0372820459 0.0500000007 -0.0443139635
v -0.0289999489 0.0500000007 -0.0501120314
v -0.0372819565 0.0500000007 -0.044314038
v 0.0372820459 0.0500000007 -0.0443139635
v -0.0372819565 0.0500000007 -0.044314038
v 0.0444310382 0.0500000007 -0.0371649563
v 0.0444310382 0.0500000007 -0.0371649563
v -0.0372819565 0.0500000007 -0.044314038
v -0.0444309637 0.0500000007 -0.0371650457
v 0.0444310382 0.0500000007 -0.0371649563
v -0.0444309637 0.0500000007 -0.0371650457
v 0.0502290316 0.0500000007 -0.0288829487
v 0.0502290316 0.0500000007 -0.0288829487
v -0.0444309637 0.0500000007 -0.0371650457
v -0.050228972 0.0500000007 -0.0288830493
v 0.0502290316 0.0500000007 -0.0288829487
v -0.050228972 0.0500000007 -0.0288830493
v 0.0545020178 0.0500000007 -0.0197199453
v 0.0545020178 0.0500000007 -0.0197199453
v -0.050228972 0.0500000007 -0.0288830493
v -0.0545019805 0.0500000007 -0.0197200533
v 0.0545020178 0.0500000007 -0.0197199453
v -0.0545019805 0.0500000007 -0.0197200533
v 0.0571190119 0.0500000007 -0.00995494332
v 0.0571190119 0.0500000007 -0.00995494332
v -0.0545019805 0.0500000007 -0.0197200533
v -0.0571189895 0.0500000007 -0.00995505694
v 0.0571190119 0.0500000007 -0.00995494332
v -0.0571189895 0.0500000007 -0.00995505694
v 0.0579999983 0.0500000007 0.000117058
v 0.0579999983 0.0500000007 0.000117058
v -0.0571189895 0.0500000007 -0.00995505694
v -0.0579999983 0.0500000007 0.000116942007
v 0.0579999983 0.0500000007 0.000117058
v -0.0579999983 0.0500000007 0.000116942007
v 0.0571189895 0.0500000007 0.0101890573
v 0.0571189895 0.0500000007 0.0101890573
v -0.0579999983 0.0500000007 0.000116942007
v -0.0571190119 0.0500000007 0.0101889437
v 0.0571189895 0.0500000007 0.0101890573
v -0.0571190119 0.0500000007 0.0101889437
v 0.0545019805 0.0500000007 0.0199540537
v 0.0545019805 0.0500000007 0.0199540537
v -0.0571190119 0.0500000007 0.0101889437
v -0.0545020178 0.0500000007 0.0199539457
v 0.0545019805 0.0500000007 0.0199540537
v -0.0545020178 0.0500000007 0.0199539457
v 0.050228972 0.0500000007 0.0291170496
v 0.050228972 0.0500000007 0.0291170496
v -0.0545020178 0.0500000007 0.0199539457
v -0.0502290316 0.0500000007 0.0291169491
v 0.050228972 0.0500000007 0.0291170496
v -0.0502290316 0.0500000007 0.0291169491
v 0.0444309637 0.0500000007 0.0373990461
v 0.0444309637 0.0500000007 0.0373990461
v -0.0502290316 0.0500000007 0.0291169491
v -0.0444310382 0.0500000007 0.0373989567
v 0.0444309637 0.0500000007 0.0373990461
v -0.0444310382 0.0500000007 0.0373989567
v 0.0372819565 0.0500000007 0.0445480384
v 0.0372819565 0.0500000007 0.0445480384
v -0.0444310382 0.0500000007 0.0373989567
v -0.0372820459 0.0500000007 0.0445479639
v 0.0372819565 0.0500000007 0.0445480384
v -0.0372820459 0.0500000007 0.0445479639
v 0.0289999489 0.0500000007 0.0503460318
v 0.0289999489 0.0500000007 0.0503460318
v -0.0372820459 0.0500000007 0.0445479639
v -0.0290000495 0.0500000007 0.0503459722
v 0.0289999489 0.0500000007 0.0503460318
v -0.0290000495 0.0500000007 0.0503459722
v 0.0198369455 0.0500000007 0.054619018
v 0.0198369455 0.0500000007 0.054619018
v -0.0290000495 0.0500000007 0.0503459722
v -0.0198370535 0.0500000007 0.0546189807
v 0.0198369455 0.0500000007 0.054619018
v -0.0198370535 0.0500000007 0.0546189807
v 0.0100719435 0.0500000007 0.0572360121
v 0.0100719435 0.0500000007 0.0572360121
v -0.0198370535 0.0500000007 0.0546189807
v -0.0100720571 0.0500000007 0.0572359897
v 0.0100719435 0.0500000007 0.0572360121
v -0.0100720571 0.0500000007 0.0572359897
v -5.79999977e-08 0.0500000007 0.0581169985
v -5.79999977e-08 0.0219999999 0.0581169985
v 0.0100609427 0.0219999999 0.0572380126
v -5.79999977e-08 0.0500000007 0.0581169985
v -5.79999977e-08 0.0500000007 0.0581169985
v 0.0100609427 0.0219999999 0.0572380126
v 0.0100719435 0.0500000007 0.0572360121
v 0.0100719435 0.0500000007 0.0572360121
v 0.0100609427 0.0219999999 0.0572380126
v 0.0198169462 0.0219999999 0.0546270199
v 0.0100719435 0.0500000007 0.0572360121
v 0.0198169462 0.0219999999 0.0546270199
v 0.0198369455 0.0500000007 0.054619018
v 0.0198369455 0.0500000007 0.054619018
v 0.0198169462 0.0219999999 0.0546270199
v 0.0289719496 0.0219999999 0.0503630303
v 0.0198369455 0.0500000007 0.054619018
v 0.0289719496 0.0219999999 0.0503630303
v 0.0289999489 0.0500000007 0.0503460318
v 0.0289999489 0.0500000007 0.0503460318
v 0.0289719496 0.0219999999 0.0503630303
v 0.0372479558 0.0219999999 0.0445750393
v 0.0289999489 0.0500000007 0.0503460318
v 0.0372479558 0.0219999999 0.0445750393
v 0.0372819565 0.0500000007 0.0445480384
v 0.0372819565 0.0500000007 0.0445480384
v 0.0372479558 0.0219999999 0.0445750393
v 0.0443959646 0.0219999999 0.0374400467
v 0.0372819565 0.0500000007 0.0445480384
v 0.0443959646 0.0219999999 0.0374400467
v 0.0444309637 0.0500000007 0.0373990461
v 0.0444309637 0.0500000007 0.0373990461
v 0.0443959646 0.0219999999 0.0374400467
v 0.0501969717 0.0219999999 0.0291730501
v 0.0444309637 0.0500000007 0.0373990461
v 0.0501969717 0.0219999999 0.0291730501
v 0.050228972 0.0500000007 0.0291170496
v 0.050228972 0.0500000007 0.0291170496
v 0.0501969717 0.0219999999 0.0291730501
v 0.0544759817 0.0219999999 0.020025054
v 0.050228972 0.0500000007 0.0291170496
v 0.0544759817 0.0219999999 0.020025054
v 0.0545019805 0.0500000007 0.0199540537
v 0.0545019805 0.0500000007 0.0199540537
v 0.0544759817 0.0219999999 0.020025054
v 0.0571039878 0.0219999999 0.0102740573
v 0.0545019805 0.0500000007 0.0199540537
v 0.0571039878 0.0219999999 0.0102740573
v 0.0571189895 0.0500000007 0.0101890573
v 0.0571189895 0.0500000007 0.0101890573
v 0.0571039878 0.0219999999 0.0102740573
v 0.0579999983 0.0219999999 0.000215057997
v 0.0571189895 0.0500000007 0.0101890573
v 0.0579999983 0.0219999999 0.000215057997
v 0.0579999983 0.0500000007 0.000117058
v 0.0579999983 0.0500000007 0.000117058
v 0.0579999983 0.0219999999 0.000215057997
v 0.0571380109 0.0219999999 -0.00984794274
v 0.0579999983 0.0500000007 0.000117058
v 0.0571380109 0.0219999999 -0.00984794274
v 0.0571190119 0.0500000007 -0.00995494332
v 0.0571190119 0.0500000007 -0.00995494332
v 0.0571380109 0.0219999999 -0.00984794274
v 0.0545430183 0.0219999999 -0.0196079463
v 0.0571190119 0.0500000007 -0.00995494332
v 0.0545430183 0.0219999999 -0.0196079463
v 0.0545020178 0.0500000007 -0.0197199453
v 0.0545020178 0.0500000007 -0.0197199453
v 0.0545430183 0.0219999999 -0.0196079463
v 0.0502940305 0.0219999999 -0.0287699495
v 0.0545020178 0.0500000007 -0.0197199453
v 0.0502940305 0.0219999999 -0.0287699495
v 0.0502290316 0.0500000007 -0.0288829487
v 0.0502290316 0.0500000007 -0.0288829487
v 0.0502940305 0.0219999999 -0.0287699495
v 0.0445210375 0.0219999999 -0.0370569564
v 0.0502290316 0.0500000007 -0.0288829487
v 0.0445210375 0.0219999999 -0.0370569564
v 0.0444310382 0.0500000007 -0.0371649563
v 0.0444310382 0.0500000007 -0.0371649563
v 0.0445210375 0.0219999999 -0.0370569564
v 0.037398044 0.0219999999 -0.0442159623
v 0.0444310382 0.0500000007 -0.0371649563
v 0.037398044 0.0219999999 -0.0442159623
v 0.0372820459 0.0500000007 -0.0443139635
v 0.0372820459 0.0500000007 -0.0443139635
v 0.037398044 0.0219999999 -0.0442159623
v 0.0291410498 0.0219999999 -0.0500309691
v 0.0372820459 0.0500000007 -0.0443139635
v 0.0291410498 0.0219999999 -0.0500309691
v 0.0290000495 0.0500000007 -0.0501119718
v 0.0290000495 0.0500000007 -0.0501119718
v 0.0291410498 0.0219999999 -0.0500309691
v 0.0200000536 0.0219999999 -0.0543259829
v 0.0290000495 0.0500000007 -0.0501119718
v 0.0200000536 0.0219999999 -0.0543259829
v 0.0200000536 0.0399999991 -0.0543259829
v 0.0290000495 0.0500000007 -0.0501119718
v 0.0200000536 0.0399999991 -0.0543259829
v 0.0198370535 0.0500000007 -0.0543849804
v 0.0198370535 0.0500000007 -0.0543849804
v 0.0200000536 0.0399999991 -0.0543259829
v 0.0134880571 0.0399999991 -0.0562929846
v 0.0198370535 0.0500000007 -0.0543849804
v 0.0134880571 0.0399999991 -0.0562929846
v 0.0100720571 0.0500000007 -0.0570019893
v 0.0100720571 0.0500000007 -0.0570019893
v 0.0134880571 0.0399999991 -0.0562929846
v 0.00679105753 0.0399999991 -0.0574839935
v 0.0100720571 0.0500000007 -0.0570019893
v 0.00679105753 0.0399999991 -0.0574839935
v 5.79999977e-08 0.0500000007 -0.0578829981
v 5.79999977e-08 0.0500000007 -0.0578829981
v 0.00679105753 0.0399999991 -0.0574839935
v 5.79999977e-08 0.0399999991 -0.0578829981
v -0.0199999176 0.0219999999 -0.082497023
v -0.0320369229 0.0219999999 -0.0786150321
v -0.0199999455 0.0219999999 -0.0543260202
v -0.0199999455 0.0219999999 -0.0543260202
v -0.0320369229 0.0219999999 -0.0786150321
v -0.0291409492 0.0219999999 -0.0500310287
v -0.0291409492 0.0219999999 -0.0500310287
v -0.0320369229 0.0219999999 -0.0786150321
v -0.0433639251 0.0219999999 -0.072990045
v -0.0291409492 0.0219999999 -0.0500310287
v -0.0433639251 0.0219999999 -0.072990045
v -0.0537309311 0.0219999999 -0.0657460541
v -0.0291409492 0.0219999999 -0.0500310287
v -0.0537309311 0.0219999999 -0.0657460541
v -0.0373979546 0.0219999999 -0.0442160368
v -0.0373979546 0.0219999999 -0.0442160368
v -0.0537309311 0.0219999999 -0.0657460541
v -0.06290894 0.0219999999 -0.0570450649
v -0.0373979546 0.0219999999 -0.0442160368
v -0.06290894 0.0219999999 -0.0570450649
v -0.044520963 0.0219999999 -0.0370570458
v -0.044520963 0.0219999999 -0.0370570458
v -0.06290894 0.0219999999 -0.0570450649
v -0.0706939548 0.0219999999 -0.0470780693
v -0.044520963 0.0219999999 -0.0370570458
v -0.0706939548 0.0219999999 -0.0470780693
v -0.0502939709 0.0219999999 -0.02877005
v -0.0502939709 0.0219999999 -0.02877005
v -0.0706939548 0.0219999999 -0.0470780693
v -0.0769139603 0.0219999999 -0.0360660776
v -0.0502939709 0.0219999999 -0.02877005
v -0.0769139603 0.0219999999 -0.0360660776
v -0.0545429811 0.0219999999 -0.0196080543
v -0.0545429811 0.0219999999 -0.0196080543
v -0.0769139603 0.0219999999 -0.0360660776
v -0.0814319775 0.0219999999 -0.0242530815
v -0.0545429811 0.0219999999 -0.0196080543
v -0.0814319775 0.0219999999 -0.0242530815
v -0.0571379885 0.0219999999 -0.00984805636
v -0.0571379885 0.0219999999 -0.00984805636
v -0.0814319775 0.0219999999 -0.0242530815
v -0.0841459855 0.0219999999 -0.0119010834
v -0.0571379885 0.0219999999 -0.00984805636
v -0.0841459855 0.0219999999 -0.0119010834
v -0.0579999983 0.0219999999 0.000214942003
v -0.0579999983 0.0219999999 0.000214942003
v -0.0841459855 0.0219999999 -0.0119010834
v -0.0849979967 0.0219999999 0.000717915013
v -0.0579999983 0.0219999999 0.000214942003
v -0.0849979967 0.0219999999 0.000717915013
v -0.0839680135 0.0219999999 0.0133229168
v -0.0579999983 0.0219999999 0.000214942003
v -0.0839680135 0.0219999999 0.0133229168
v -0.0571040101 0.0219999999 0.0102739437
v -0.0571040101 0.0219999999 0.0102739437
v -0.0839680135 0.0219999999 0.0133229168
v -0.0810790211 0.0219999999 0.0256349184
v -0.0571040101 0.0219999999 0.0102739437
v -0.0810790211 0.0219999999 0.0256349184
v -0.054476019 0.0219999999 0.020024946
v -0.054476019 0.0219999999 0.020024946
v -0.0810790211 0.0219999999 0.0256349184
v -0.0763950348 0.0219999999 0.0373829231
v -0.054476019 0.0219999999 0.020024946
v -0.0763950348 0.0219999999 0.0373829231
v -0.0501970313 0.0219999999 0.0291729495
v -0.0501970313 0.0219999999 0.0291729495
v -0.0763950348 0.0219999999 0.0373829231
v -0.0700200424 0.0219999999 0.0483059287
v -0.0501970313 0.0219999999 0.0291729495
v -0.0700200424 0.0219999999 0.0483059287
v -0.0443960391 0.0219999999 0.0374399573
v -0.0443960391 0.0219999999 0.0374399573
v -0.0700200424 0.0219999999 0.0483059287
v -0.0620950609 0.0219999999 0.0581619367
v -0.0443960391 0.0219999999 0.0374399573
v -0.0620950609 0.0219999999 0.0581619367
v -0.0372480452 0.0219999999 0.0445749648
v -0.0372480452 0.0219999999 0.0445749648
v -0.0620950609 0.0219999999 0.0581619367
v -0.0527950674 0.0219999999 0.0667329431
v -0.0372480452 0.0219999999 0.0445749648
v -0.0527950674 0.0219999999 0.0667329431
v -0.0289720502 0.0219999999 0.0503629707
v -0.0289720502 0.0219999999 0.0503629707
v -0.0527950674 0.0219999999 0.0667329431
v -0.0423270762 0.0219999999 0.0738289505
v -0.0289720502 0.0219999999 0.0503629707
v -0.0423270762 0.0219999999 0.0738289505
v -0.0309210792 0.0219999999 0.0792929679
v -0.0289720502 0.0219999999 0.0503629707
v -0.0309210792 0.0219999999 0.0792929679
v -0.0198170543 0.0219999999 0.0546269827
v -0.0198170543 0.0219999999 0.0546269827
v -0.0309210792 0.0219999999 0.0792929679
v -0.0188310836 0.0219999999 0.0830049738
v -0.0198170543 0.0219999999 0.0546269827
v -0.0188310836 0.0219999999 0.0830049738
v -0.0100610564 0.0219999999 0.0572379902
v -0.0100610564 0.0219999999 0.0572379902
v -0.0188310836 0.0219999999 0.0830049738
v -0.00632408494 0.0219999999 0.0848809853
v -0.0100610564 0.0219999999 0.0572379902
v -0.00632408494 0.0219999999 0.0848809853
v -5.79999977e-08 0.0219999999 0.0581169985
v -5.79999977e-08 0.0219999999 0.0581169985
v -0.00632408494 0.0219999999 0.0848809853
v 0.00632391544 0.0219999999 0.0848810002
v -5.79999977e-08 0.0219999999 0.0581169985
v 0.00632391544 0.0219999999 0.0848810002
v 0.0100609427 0.0219999999 0.0572380126
v 0.0100609427 0.0219999999 0.0572380126
v 0.00632391544 0.0219999999 0.0848810002
v 0.0188309159 0.0219999999 0.0830050185
v 0.0100609427 0.0219999999 0.0572380126
v 0.0188309159 0.0219999999 0.0830050185
v 0.0198169462 0.0219999999 0.0546270199
v 0.0198169462 0.0219999999 0.0546270199
v 0.0188309159 0.0219999999 0.0830050185
v 0.030920919 0.0219999999 0.0792930275
v 0.0198169462 0.0219999999 0.0546270199
v 0.030920919 0.0219999999 0.0792930275
v 0.0289719496 0.0219999999 0.0503630303
v 0.0289719496 0.0219999999 0.0503630303
v 0.030920919 0.0219999999 0.0792930275
v 0.0423269272 0.0219999999 0.0738290399
v 0.0289719496 0.0219999999 0.0503630303
v 0.0423269272 0.0219999999 0.0738290399
v 0.0527949333 0.0219999999 0.0667330474
v 0.0289719496 0.0219999999 0.0503630303
v 0.0527949333 0.0219999999 0.0667330474
v 0.0372479558 0.0219999999 0.0445750393
v 0.0372479558 0.0219999999 0.0445750393
v 0.0527949333 0.0219999999 0.0667330474
v 0.0620949417 0.0219999999 0.0581620634
v 0.0372479558 0.0219999999 0.0445750393
v 0.0620949417 0.0219999999 0.0581620634
v 0.0443959646 0.0219999999 0.0374400467
v 0.0443959646 0.0219999999 0.0374400467
v 0.0620949417 0.0219999999 0.0581620634
v 0.070019953 0.0219999999 0.0483060703
v 0.0443959646 0.0219999999 0.0374400467
v 0.070019953 0.0219999999 0.0483060703
v 0.0501969717 0.0219999999 0.0291730501
v 0.0501969717 0.0219999999 0.0291730501
v 0.070019953 0.0219999999 0.0483060703
v 0.0763949603 0.0219999999 0.0373830795
v 0.0501969717 0.0219999999 0.0291730501
v 0.0763949603 0.0219999999 0.0373830795
v 0.0544759817 0.0219999999 0.020025054
v 0.0544759817 0.0219999999 0.020025054
v 0.0763949603 0.0219999999 0.0373830795
v 0.0810789764 0.0219999999 0.0256350823
v 0.0544759817 0.0219999999 0.020025054
v 0.0810789764 0.0219999999 0.0256350823
v 0.0571039878 0.0219999999 0.0102740573
v 0.0571039878 0.0219999999 0.0102740573
v 0.0810789764 0.0219999999 0.0256350823
v 0.0839679837 0.0219999999 0.0133230845
v 0.0571039878 0.0219999999 0.0102740573
v 0.0839679837 0.0219999999 0.0133230845
v 0.0579999983 0.0219999999 0.000215057997
v 0.0579999983 0.0219999999 0.000215057997
v 0.0839679837 0.0219999999 0.0133230845
v 0.0849979967 0.0219999999 0.000718084979
v 0.0579999983 0.0219999999 0.000215057997
v 0.0849979967 0.0219999999 0.000718084979
v 0.0841460153 0.0219999999 -0.0119009158
v 0.0579999983 0.0219999999 0.000215057997
v 0.0841460153 0.0219999999 -0.0119009158
v 0.0571380109 0.0219999999 -0.00984794274
v 0.0571380109 0.0219999999 -0.00984794274
v 0.0841460153 0.0219999999 -0.0119009158
v 0.0814320222 0.0219999999 -0.0242529176
v 0.0571380109 0.0219999999 -0.00984794274
v 0.0814320222 0.0219999999 -0.0242529176
v 0.0545430183 0.0219999999 -0.0196079463
v 0.0545430183 0.0219999999 -0.0196079463
v 0.0814320222 0.0219999999 -0.0242529176
v 0.0769140348 0.0219999999 -0.0360659212
v 0.0545430183 0.0219999999 -0.0196079463
v 0.0769140348 0.0219999999 -0.0360659212
v 0.0502940305 0.0219999999 -0.0287699495
v 0.0502940305 0.0219999999 -0.0287699495
v 0.0769140348 0.0219999999 -0.0360659212
v 0.0706940442 0.0219999999 -0.0470779277
v 0.0502940305 0.0219999999 -0.0287699495
v 0.0706940442 0.0219999999 -0.0470779277
v 0.0445210375 0.0219999999 -0.0370569564
v 0.0445210375 0.0219999999 -0.0370569564
v 0.0706940442 0.0219999999 -0.0470779277
v 0.0629090592 0.0219999999 -0.0570449382
v 0.0445210375 0.0219999999 -0.0370569564
v 0.0629090592 0.0219999999 -0.0570449382
v 0.037398044 0.0219999999 -0.0442159623
v 0.037398044 0.0219999999 -0.0442159623
v 0.0629090592 0.0219999999 -0.0570449382
v 0.0537310652 0.0219999999 -0.0657459497
v 0.037398044 0.0219999999 -0.0442159623
v 0.0537310652 0.0219999999 -0.0657459497
v 0.0291410498 0.0219999999 -0.0500309691
v 0.0291410498 0.0219999999 -0.0500309691
v 0.0537310652 0.0219999999 -0.0657459497
v 0.0433640741 0.0219999999 -0.0729899555
v 0.0291410498 0.0219999999 -0.0500309691
v 0.0433640741 0.0219999999 -0.0729899555
v 0.0320370793 0.0219999999 -0.0786149725
v 0.0200000815 0.0219999999 -0.0824969783
v 0.0200000536 0.0219999999 -0.0543259829
v 0.0320370793 0.0219999999 -0.0786149725
v 0.0320370793 0.0219999999 -0.0786149725
v 0.0200000536 0.0219999999 -0.0543259829
v 0.0291410498 0.0219999999 -0.0500309691
v 0.0200000815 0.0219999999 -0.0824969783
v 0.0320370793 0.0219999999 -0.0786149725
v 0.0200000815 0 -0.0824969783
v 0.0200000815 0 -0.0824969783
v 0.0320370793 0.0219999999 -0.0786149725
v 0.0320370793 0 -0.0786149725
v 0.0320370793 0 -0.0786149725
v 0.0320370793 0.0219999999 -0.0786149725
v 0.0433640741 0.0219999999 -0.0729899555
v 0.0320370793 0 -0.0786149725
v 0.0433640741 0.0219999999 -0.0729899555
v 0.0433640741 0 -0.0729899555
v 0.0433640741 0 -0.0729899555
v 0.0433640741 0.0219999999 -0.0729899555
v 0.0537310652 0.0219999999 -0.0657459497
v 0.0433640741 0 -0.0729899555
v 0.0537310652 0.0219999999 -0.0657459497
v 0.0537310652 0 -0.0657459497
v 0.0537310652 0 -0.0657459497
v 0.0537310652 0.0219999999 -0.0657459497
v 0.0629090592 0.0219999999 -0.0570449382
v 0.0537310652 0 -0.0657459497
v 0.0629090592 0.0219999999 -0.0570449382
v 0.0629090592 0 -0.0570449382
v 0.0629090592 0 -0.0570449382
v 0.0629090592 0.0219999999 -0.0570449382
v 0.0706940442 0.0219999999 -0.0470779277
v 0.0629090592 0 -0.0570449382
v 0.0706940442 0.0219999999 -0.0470779277
v 0.0706940442 0 -0.0470779277
v 0.0706940442 0 -0.0470779277
v 0.0706940442 0.0219999999 -0.0470779277
v 0.0769140348 0.0219999999 -0.0360659212
v 0.0706940442 0 -0.0470779277
v 0.0769140348 0.0219999999 -0.0360659212
v 0.0769140348 0 -0.0360659212
v 0.0769140348 0 -0.0360659212
v 0.0769140348 0.0219999999 -0.0360659212
v 0.0814320222 0.0219999999 -0.0242529176
v 0.0769140348 0 -0.0360659212
v 0.0814320222 0.0219999999 -0.0242529176
v 0.0814320222 0 -0.0242529176
v 0.0814320222 0 -0.0242529176
v 0.0814320222 0.0219999999 -0.0242529176
v 0.0841460153 0.0219999999 -0.0119009158
v 0.0814320222 0 -0.0242529176
v 0.0841460153 0.0219999999 -0.0119009158
v 0.0841460153 0 -0.0119009158
v 0.0841460153 0 -0.0119009158
v 0.0841460153 0.0219999999 -0.0119009158
v 0.0849979967 0.0219999999 0.000718084979
v 0.0841460153 0 -0.0119009158
v 0.0849979967 0.0219999999 0.000718084979
v 0.0849979967 0 0.000718084979
v 0.0849979967 0 0.000718084979
v 0.0849979967 0.0219999999 0.000718084979
v 0.0839679837 0.0219999999 0.0133230845
v 0.0849979967 0 0.000718084979
v 0.0839679837 0.0219999999 0.0133230845
v 0.0839679837 0 0.0133230845
v 0.0839679837 0 0.0133230845
v 0.0839679837 0.0219999999 0.0133230845
v 0.0810789764 0.0219999999 0.0256350823
v 0.0839679837 0 0.0133230845
v 0.0810789764 0.0219999999 0.0256350823
v 0.0810789764 0 0.0256350823
v 0.0810789764 0 0.0256350823
v 0.0810789764 0.0219999999 0.0256350823
v 0.0763949603 0.0219999999 0.0373830795
v 0.0810789764 0 0.0256350823
v 0.0763949603 0.0219999999 0.0373830795
v 0.0763949603 0 0.0373830795
v 0.0763949603 0 0.0373830795
v 0.0763949603 0.0219999999 0.0373830795
v 0.070019953 0.0219999999 0.0483060703
v 0.0763949603 0 0.0373830795
v 0.070019953 0.0219999999 0.0483060703
v 0.070019953 0 0.0483060703
v 0.070019953 0 0.0483060703
v 0.070019953 0.0219999999 0.0483060703
v 0.0620949417 0.0219999999 0.0581620634
v 0.070019953 0 0.0483060703
v 0.0620949417 0.0219999999 0.0581620634
v 0.0620949417 0 0.0581620634
v 0.0620949417 0 0.0581620634
v 0.0620949417 0.0219999999 0.0581620634
v 0.0527949333 0.0219999999 0.0667330474
v 0.0620949417 0 0.0581620634
v 0.0527949333 0.0219999999 0.0667330474
v 0.0527949333 0 0.0667330474
v 0.0527949333 0 0.0667330474
v 0.0527949333 0.0219999999 0.0667330474
v 0.0423269272 0.0219999999 0.0738290399
v 0.0527949333 0 0.0667330474
v 0.0423269272 0.0219999999 0.0738290399
v 0.0423269272 0 0.0738290399
v 0.0423269272 0 0.0738290399
v 0.0423269272 0.0219999999 0.0738290399
v 0.030920919 0.0219999999 0.0792930275
v 0.0423269272 0 0.0738290399
v 0.030920919 0.0219999999 0.0792930275
v 0.030920919 0 0.0792930275
v 0.030920919 0 0.0792930275
v 0.030920919 0.0219999999 0.0792930275
v 0.0188309159 0.0219999999 0.0830050185
v 0.030920919 0 0.0792930275
v 0.0188309159 0.0219999999 0.0830050185
v 0.0188309159 0 0.0830050185
v 0.0188309159 0 0.0830050185
v 0.0188309159 0.0219999999 0.0830050185
v 0.00632391544 0.0219999999 0.0848810002
v 0.0188309159 0 0.0830050185
v 0.00632391544 0.0219999999 0.0848810002
v 0.00632391544 0 0.0848810002
v 0.00632391544 0 0.0848810002
v 0.00632391544 0.0219999999 0.0848810002
v -0.00632408494 0.0219999999 0.0848809853
v 0.00632391544 0 0.0848810002
v -0.00632408494 0.0219999999 0.0848809853
v -0.00632408494 0 0.0848809853
v -0.00632408494 0 0.0848809853
v -0.00632408494 0.0219999999 0.0848809853
v -0.0188310836 0.0219999999 0.0830049738
v -0.00632408494 0 0.0848809853
v -0.0188310836 0.0219999999 0.0830049738
v -0.0188310836 0 0.0830049738
v -0.0188310836 0 0.0830049738
v -0.0188310836 0.0219999999 0.0830049738
v -0.0309210792 0.0219999999 0.0792929679
v -0.0188310836 0 0.0830049738
v -0.0309210792 0.0219999999 0.0792929679
v -0.0309210792 0 0.0792929679
v -0.0309210792 0 0.0792929679
v -0.0309210792 0.0219999999 0.0792929679
v -0.0423270762 0.0219999999 0.0738289505
v -0.0309210792 0 0.0792929679
v -0.0423270762 0.0219999999 0.0738289505
v -0.0423270762 0 0.0738289505
v -0.0423270762 0 0.0738289505
v -0.0423270762 0.0219999999 0.0738289505
v -0.0527950674 0.0219999999 0.0667329431
v -0.0423270762 0 0.0738289505
v -0.0527950674 0.0219999999 0.0667329431
v -0.0527950674 0 0.0667329431
v -0.0527950674 0 0.0667329431
v -0.0527950674 0.0219999999 0.0667329431
v -0.0620950609 0.0219999999 0.0581619367
v -0.0527950674 0 0.0667329431
v -0.0620950609 0.0219999999 0.0581619367
v -0.0620950609 0 0.0581619367
v -0.0620950609 0 0.0581619367
v -0.0620950609 0.0219999999 0.0581619367
v -0.0700200424 0.0219999999 0.0483059287
v -0.0620950609 0 0.0581619367
v -0.0700200424 0.0219999999 0.0483059287
v -0.0700200424 0 0.0483059287
v -0.0700200424 0 0.0483059287
v -0.0700200424 0.0219999999 0.0483059287
v -0.0763950348 0.0219999999 0.0373829231
v -0.0700200424 0 0.0483059287
v -0.0763950348 0.0219999999 0.0373829231
v -0.0763950348 0 0.0373829231
v -0.0763950348 0 0.0373829231
v -0.0763950348 0.0219999999 0.0373829231
v -0.0810790211 0.0219999999 0.0256349184
v -0.0763950348 0 0.0373829231
v -0.0810790211 0.0219999999 0.0256349184
v -0.0810790211 0 0.0256349184
v -0.0810790211 0 0.0256349184
v -0.0810790211 0.0219999999 0.0256349184
v -0.0839680135 0.0219999999 0.0133229168
v -0.0810790211 0 0.0256349184
v -0.0839680135 0.0219999999 0.0133229168
v -0.0839680135 0 0.0133229168
v -0.0839680135 0 0.0133229168
v -0.0839680135 0.0219999999 0.0133229168
v -0.0849979967 0.0219999999 0.000717915013
v -0.0839680135 0 0.0133229168
v -0.0849979967 0.0219999999 0.000717915013
v -0.0849979967 0 0.000717915013
v -0.0849979967 0 0.000717915013
v -0.0849979967 0.0219999999 0.000717915013
v -0.0841459855 0.0219999999 -0.0119010834
v -0.0849979967 0 0.000717915013
v -0.0841459855 0.0219999999 -0.0119010834
v -0.0841459855 0 -0.0119010834
v -0.0841459855 0 -0.0119010834
v -0.0841459855 0.0219999999 -0.0119010834
v -0.0814319775 0.0219999999 -0.0242530815
v -0.0841459855 0 -0.0119010834
v -0.0814319775 0.0219999999 -0.0242530815
v -0.0814319775 0 -0.0242530815
v -0.0814319775 0 -0.0242530815
v -0.0814319775 0.0219999999 -0.0242530815
v -0.0769139603 0.0219999999 -0.0360660776
v -0.0814319775 0 -0.0242530815
v -0.0769139603 0.0219999999 -0.0360660776
v -0.0769139603 0 -0.0360660776
v -0.0769139603 0 -0.0360660776
v -0.0769139603 0.0219999999 -0.0360660776
v -0.0706939548 0.0219999999 -0.0470780693
v -0.0769139603 0 -0.0360660776
v -0.0706939548 0.0219999999 -0.0470780693
v -0.0706939548 0 -0.0470780693
v -0.0706939548 0 -0.0470780693
v -0.0706939548 0.0219999999 -0.0470780693
v -0.06290894 0.0219999999 -0.0570450649
v -0.0706939548 0 -0.0470780693
v -0.06290894 0.0219999999 -0.0570450649
v -0.06290894 0 -0.0570450649
v -0.06290894 0 -0.0570450649
v -0.06290894 0.0219999999 -0.0570450649
v -0.0537309311 0.0219999999 -0.0657460541
v -0.06290894 0 -0.0570450649
v -0.0537309311 0.0219999999 -0.0657460541
v -0.0537309311 0 -0.0657460541
v -0.0537309311 0 -0.0657460541
v -0.0537309311 0.0219999999 -0.0657460541
v -0.0433639251 0.0219999999 -0.072990045
v -0.0537309311 0 -0.0657460541
v -0.0433639251 0.0219999999 -0.072990045
v -0.0433639251 0 -0.072990045
v -0.0433639251 0 -0.072990045
v -0.0433639251 0.0219999999 -0.072990045
v -0.0320369229 0.0219999999 -0.0786150321
v -0.0433639251 0 -0.072990045
v -0.0320369229 0.0219999999 -0.0786150321
v -0.0320369229 0 -0.0786150321
v -0.0320369229 0 -0.0786150321
v -0.0320369229 0.0219999999 -0.0786150321
v -0.0199999176 0.0219999999 -0.082497023
v -0.0320369229 0 -0.0786150321
v -0.0199999176 0.0219999999 -0.082497023
v -0.0199999176 0 -0.082497023
v 0.0320370793 0 -0.0786149725
v 0.0188309159 0 0.0830050185
v 0.0200000815 0 -0.0824969783
v 0.0200000815 0 -0.0824969783
v 0.0188309159 0 0.0830050185
v -0.0199999176 0 -0.082497023
v 0.0200000815 0 -0.0824969783
v -0.0199999176 0 -0.082497023
v 0.0200000852 0 -0.0848829821
v 0.0200000852 0 -0.0848829821
v -0.0199999176 0 -0.082497023
v -0.0199999139 0 -0.0848830268
v 0.0320370793 0 -0.0786149725
v 0.0433640741 0 -0.0729899555
v 0.0188309159 0 0.0830050185
v 0.0188309159 0 0.0830050185
v 0.0433640741 0 -0.0729899555
v 0.0537310652 0 -0.0657459497
v 0.0188309159 0 0.0830050185
v 0.0537310652 0 -0.0657459497
v 0.0629090592 0 -0.0570449382
v 0.0629090592 0 -0.0570449382
v 0.0706940442 0 -0.0470779277
v 0.0188309159 0 0.0830050185
v 0.0188309159 0 0.0830050185
v 0.0706940442 0 -0.0470779277
v 0.0769140348 0 -0.0360659212
v 0.0188309159 0 0.0830050185
v 0.0769140348 0 -0.0360659212
v 0.0814320222 0 -0.0242529176
v 0.0814320222 0 -0.0242529176
v 0.0841460153 0 -0.0119009158
v 0.0188309159 0 0.0830050185
v 0.0188309159 0 0.0830050185
v 0.0841460153 0 -0.0119009158
v 0.0849979967 0 0.000718084979
v 0.0188309159 0 0.0830050185
v 0.0849979967 0 0.000718084979
v 0.0839679837 0 0.0133230845
v 0.0839679837 0 0.0133230845
v 0.0810789764 0 0.0256350823
v 0.0188309159 0 0.0830050185
v 0.0188309159 0 0.0830050185
v 0.0810789764 0 0.0256350823
v 0.0763949603 0 0.0373830795
v 0.0188309159 0 0.0830050185
v 0.0763949603 0 0.0373830795
v 0.070019953 0 0.0483060703
v 0.070019953 0 0.0483060703
v 0.0620949417 0 0.0581620634
v 0.0188309159 0 0.0830050185
v 0.0188309159 0 0.0830050185
v 0.0620949417 0 0.0581620634
v 0.0527949333 0 0.0667330474
v 0.0188309159 0 0.0830050185
v 0.0527949333 0 0.0667330474
v 0.0423269272 0 0.0738290399
v 0.0423269272 0 0.0738290399
v 0.030920919 0 0.0792930275
v 0.0188309159 0 0.0830050185
v 0.0188309159 0 0.0830050185
v 0.00632391544 0 0.0848810002
v -0.0199999176 0 -0.082497023
v -0.0199999176 0 -0.082497023
v 0.00632391544 0 0.0848810002
v -0.00632408494 0 0.0848809853
v -0.0199999176 0 -0.082497023
v -0.00632408494 0 0.0848809853
v -0.0188310836 0 0.0830049738
v -0.0188310836 0 0.0830049738
v -0.0309210792 0 0.0792929679
v -0.0199999176 0 -0.082497023
v -0.0199999176 0 -0.082497023
v -0.0309210792 0 0.0792929679
v -0.0423270762 0 0.0738289505
v -0.0199999176 0 -0.082497023
v -0.0423270762 0 0.0738289505
v -0.0527950674 0 0.0667329431
v -0.0527950674 0 0.0667329431
v -0.0620950609 0 0.0581619367
v -0.0199999176 0 -0.082497023
v -0.0199999176 0 -0.082497023
v -0.0620950609 0 0.0581619367
v -0.0700200424 0 0.0483059287
v -0.0199999176 0 -0.082497023
v -0.0700200424 0 0.0483059287
v -0.0763950348 0 0.0373829231
v -0.0763950348 0 0.0373829231
v -0.0810790211 0 0.0256349184
v -0.0199999176 0 -0.082497023
v -0.0199999176 0 -0.082497023
v -0.0810790211 0 0.0256349184
v -0.0839680135 0 0.0133229168
v -0.0199999176 0 -0.082497023
v -0.0839680135 0 0.0133229168
v -0.0849979967 0 0.000717915013
v -0.0849979967 0 0.000717915013
v -0.0841459855 0 -0.0119010834
v -0.0199999176 0 -0.082497023
v -0.0199999176 0 -0.082497023
v -0.0841459855 0 -0.0119010834
v -0.0814319775 0 -0.0242530815
v -0.0199999176 0 -0.082497023
v -0.0814319775 0 -0.0242530815
v -0.0769139603 0 -0.0360660776
v -0.0769139603 0 -0.0360660776
v -0.0706939548 0 -0.0470780693
v -0.0199999176 0 -0.082497023
v -0.0199999176 0 -0.082497023
v -0.0706939548 0 -0.0470780693
v -0.06290894 0 -0.0570450649
v -0.0199999176 0 -0.082497023
v -0.06290894 0 -0.0570450649
v -0.0537309311 0 -0.0657460541
v -0.0537309311 0 -0.0657460541
v -0.0433639251 0 -0.072990045
v -0.0199999176 0 -0.082497023
v -0.0199999176 0 -0.082497023
v -0.0433639251 0 -0.072990045
v -0.0320369229 0 -0.0786150321
v -0.0199999455 0.0399999991 -0.0543260202
v -0.0134879434 0.0399999991 -0.0562930144
v -0.0199999139 0.0399999991 -0.0848830268
v -0.0199999139 0.0399999991 -0.0848830268
v -0.0134879434 0.0399999991 -0.0562930144
v -0.00679094205 0.0399999991 -0.0574840084
v -0.0199999139 0.0399999991 -0.0848830268
v -0.00679094205 0.0399999991 -0.0574840084
v 5.79999977e-08 0.0399999991 -0.0578829981
v -0.0199999139 0.0399999991 -0.0848830268
v 5.79999977e-08 0.0399999991 -0.0578829981
v 0.0200000852 0.0399999991 -0.0848829821
v 0.0200000852 0.0399999991 -0.0848829821
v 5.79999977e-08 0.0399999991 -0.0578829981
v 0.00679105753 0.0399999991 -0.0574839935
v 0.0200000852 0.0399999991 -0.0848829821
v 0.00679105753 0.0399999991 -0.0574839935
v 0.0134880571 0.0399999991 -0.0562929846
v 0.0134880571 0.0399999991 -0.0562929846
v 0.0200000536 0.0399999991 -0.0543259829
v 0.0200000852 0.0399999991 -0.0848829821
v 0.0200000852 0 -0.0848829821
v -0.0199999139 0 -0.0848830268
v 0.0200000852 0.0399999991 -0.0848829821
v 0.0200000852 0.0399999991 -0.0848829821
v -0.0199999139 0 -0.0848830268
v -0.0199999139 0.0399999991 -0.0848830268
v -0.0199999176 0 -0.082497023
v -0.0199999176 0.0219999999 -0.082497023
v -0.0199999139 0 -0.0848830268
v -0.0199999139 0 -0.0848830268
v -0.0199999176 0.0219999999 -0.082497023
v -0.0199999139 0.0399999991 -0.0848830268
v -0.0199999139 0.0399999991 -0.0848830268
v -0.0199999176 0.0219999999 -0.082497023
v -0.0199999455 0.0399999991 -0.0543260202
v -0.0199999455 0.0399999991 -0.0543260202
v -0.0199999176 0.0219999999 -0.082497023
v -0.0199999455 0.0219999999 -0.0543260202
v 0.0200000536 0.0219999999 -0.0543259829
v 0.0200000815 0.0219999999 -0.0824969783
v 0.0200000536 0.0399999991 -0.0543259829
v 0.0200000536 0.0399999991 -0.0543259829
v 0.0200000815 0.0219999999 -0.0824969783
v 0.0200000852 0.0399999991 -0.0848829821
v 0.0200000852 0.0399999991 -0.0848829821
v 0.0200000815 0.0219999999 -0.0824969783
v 0.0200000852 0 -0.0848829821
v 0.0200000852 0 -0.0848829821
v 0.0200000815 0.0219999999 -0.0824969783
v 0.0200000815 0 -0.0824969783

# 335 UV coordinates
vt -2.20000005 2.04191899 0
vt -2.20000005 3.05312705 0
vt -4 2.04191899 0
vt -5 3.0368731 0
vt -5 2.02458191 0
vt -5 4.04916382 0
vt -2.20000005 4.06433392 0
vt -5 5.06145477 0
vt -2.20000005 5.07554102 0
vt -5 6.0737462 0
vt -2.20000005 6.08674908 0
vt -5 7.08603716 0
vt -2.20000005 7.09795618 0
vt -5 8.09832764 0
vt -2.20000005 8.10916328 0
vt -5 9.11061859 0
vt -2.20000005 9.12037086 0
vt -5 10.1229095 0
vt -2.20000005 10.1315784 0
vt -5 11.1352015 0
vt -2.20000005 11.142786 0
vt -5 12.1474915 0
vt -2.20000005 12.1539936 0
vt -5 13.1597824 0
vt -2.20000005 13.1652002 0
vt -5 14.1720734 0
vt -2.20000005 14.1764078 0
vt -5 15.1843643 0
vt -2.20000005 15.1876154 0
vt -5 16.1966553 0
vt -2.20000005 16.198822 0
vt -5 17.2089462 0
vt -2.20000005 17.2100296 0
vt -5 18.2212372 0
vt -2.20000005 18.2212372 0
vt -4 1.36127996 0
vt -5 1.01229095 0
vt -4 0.680639982 0
vt -5 0 0
vt -4 0 0
vt 0 -5.80000019 0
vt 1.00715899 -5.71188498 0
vt -1.00715899 -5.71188498 0
vt -1.98371696 -5.45021725 0
vt 1.98371696 -5.45021725 0
vt -2.9000001 -5.02294683 0
vt 2.9000001 -5.02294683 0
vt -3.72816801 -4.44305801 0
vt 3.72816801 -4.44305801 0
vt -4.44305801 -3.72816801 0
vt 4.44305801 -3.72816801 0
vt -5.02294683 -2.9000001 0
vt 5.02294683 -2.9000001 0
vt -5.45021725 -1.98371696 0
vt 5.45021725 -1.98371696 0
vt -5.71188498 -1.00715899 0
vt 5.71188498 -1.00715899 0
vt -5.80000019 -0 0
vt 5.80000019 -0 0
vt -5.71188498 1.00715899 0
vt 5.71188498 1.00715899 0
vt -5.45021725 1.98371696 0
vt 5.45021725 1.98371696 0
vt -5.02294683 2.9000001 0
vt 5.02294683 2.9000001 0
vt -4.44305801 3.72816801 0
vt 4.44305801 3.72816801 0
vt -3.72816801 4.44305801 0
vt 3.72816801 4.44305801 0
vt -2.9000001 5.02294683 0
vt 2.9000001 5.02294683 0
vt -1.98371696 5.45021725 0
vt 1.98371696 5.45021725 0
vt -1.00715899 5.71188498 0
vt 1.00715899 5.71188498 0
vt 0 5.80000019 0
vt -2.20000005 -18.2212372 0
vt -2.20000005 -17.2100296 0
vt -5 -18.2212372 0
vt -5 -17.2089462 0
vt -2.20000005 -16.198822 0
vt -5 -16.1966553 0
vt -2.20000005 -15.1876154 0
vt -5 -15.1843643 0
vt -2.20000005 -14.1764078 0
vt -5 -14.1720734 0
vt -2.20000005 -13.1652002 0
vt -5 -13.1597824 0
vt -2.20000005 -12.1539936 0
vt -5 -12.1474915 0
vt -2.20000005 -11.142786 0
vt -5 -11.1352015 0
vt -2.20000005 -10.1315784 0
vt -5 -10.1229095 0
vt -2.20000005 -9.12037086 0
vt -5 -9.11061859 0
vt -2.20000005 -8.10916328 0
vt -5 -8.09832764 0
vt -2.20000005 -7.09795618 0
vt -5 -7.08603716 0
vt -2.20000005 -6.08674908 0
vt -5 -6.0737462 0
vt -2.20000005 -5.07554102 0
vt -5 -5.06145477 0
vt -2.20000005 -4.06433392 0
vt -5 -4.04916382 0
vt -2.20000005 -3.05312705 0
vt -5 -3.0368731 0
vt -2.20000005 -2.04191899 0
vt -4 -2.04191899 0
vt -5 -2.02458191 0
vt -4 -1.36127996 0
vt -5 -1.01229095 0
vt -4 -0.680639982 0
vt 7.80000019 -8.2613554 0
vt 9.00365543 -7.87315702 0
vt 7.80000019 -5.44426298 0
vt 8.7140646 -5.01480103 0
vt 10.1363878 -7.31065893 0
vt 11.1731195 -6.58631706 0
vt 9.5397768 -4.43329096 0
vt 12.0909023 -5.71616602 0
vt 10.252099 -3.71736598 0
vt 12.8694143 -4.71946907 0
vt 10.8294363 -2.888731 0
vt 13.4914217 -3.6182909 0
vt 11.254282 -1.97251201 0
vt 13.9431553 -2.437011 0
vt 11.5137568 -0.996486008 0
vt 14.2146139 -1.20177996 0
vt 11.5999918 0.00975199975 0
vt 14.2997875 0.0600560009 0
vt 14.1967916 1.32056296 0
vt 11.5103731 1.01569498 0
vt 13.9079056 2.55183506 0
vt 11.2476187 1.99084306 0
vt 13.4395256 3.726614 0
vt 10.8196936 2.90562892 0
vt 12.8020191 4.818892 0
vt 10.2395725 3.73231697 0
vt 12.0095015 5.80448914 0
vt 9.52484703 4.44584322 0
vt 11.0795155 6.66158485 0
vt 8.69718456 5.0245719 0
vt 10.0326509 7.37120485 0
vt 8.89208317 7.91763973 0
vt 7.78168011 5.45095825 0
vt 7.68306303 8.28879261 0
vt 6.80609226 5.71207285 0
vt 6.43235397 8.4764452 0
vt 5.80000019 5.80000019 0
vt 5.16764593 8.4764452 0
vt 4.79390812 5.71207285 0
vt 3.91693807 8.28879261 0
vt 3.81832004 5.45095825 0
vt 2.70791602 7.91763973 0
vt 2.90281606 5.0245719 0
vt 1.56734896 7.37120485 0
vt 0.520483971 6.66158485 0
vt 2.07515311 4.44584322 0
vt -0.409500986 5.80448914 0
vt 1.36042702 3.73231697 0
vt -1.20201898 4.818892 0
vt 0.780306995 2.90562892 0
vt -1.83952498 3.726614 0
vt 0.352382004 1.99084306 0
vt -2.30790591 2.55183506 0
vt 0.0896269977 1.01569498 0
vt -2.59679198 1.32056296 0
vt 7.99999998e-06 0.00975199975 0
vt -2.69978809 0.0600560009 0
vt -2.61461401 -1.20177996 0
vt 0.0862430036 -0.996486008 0
vt -2.34315491 -2.437011 0
vt 0.345717996 -1.97251201 0
vt -1.89142203 -3.6182909 0
vt 0.77056402 -2.888731 0
vt -1.26941395 -4.71946907 0
vt 1.34790099 -3.71736598 0
vt -0.490902007 -5.71616602 0
vt 2.0602231 -4.43329096 0
vt 0.426878989 -6.58631706 0
vt 2.88593507 -5.01480103 0
vt 1.46361196 -7.31065893 0
vt 2.59634399 -7.87315702 0
vt 3.79999995 -8.2613554 0
vt 3.79999995 -5.44426298 0
vt -2.20000005 -2.01892996 0
vt -2.20000005 -3.28480697 0
vt -0 -2.01892996 0
vt -0 -3.28480697 0
vt -2.20000005 -4.55068398 0
vt -0 -4.55068398 0
vt -2.20000005 -5.81656218 0
vt -0 -5.81656218 0
vt -2.20000005 -7.08243895 0
vt -0 -7.08243895 0
vt -2.20000005 -8.34831619 0
vt -0 -8.34831619 0
vt -2.20000005 -9.61419392 0
vt -0 -9.61419392 0
vt -2.20000005 -10.8800707 0
vt -0 -10.8800707 0
vt -2.20000005 -12.1459484 0
vt -0 -12.1459484 0
vt -2.20000005 -13.4118261 0
vt -0 -13.4118261 0
vt -2.20000005 -14.6777029 0
vt -0 -14.6777029 0
vt -2.20000005 -15.9435806 0
vt -0 -15.9435806 0
vt -2.20000005 -17.2094574 0
vt -0 -17.2094574 0
vt -2.20000005 -18.4753342 0
vt -0 -18.4753342 0
vt -2.20000005 -19.7412128 0
vt -0 -19.7412128 0
vt -2.20000005 -21.0070896 0
vt -0 -21.0070896 0
vt -2.20000005 -22.2729664 0
vt -0 -22.2729664 0
vt -2.20000005 -23.5388451 0
vt -0 -23.5388451 0
vt -2.20000005 -24.8047218 0
vt -0 -24.8047218 0
vt -2.20000005 -26.0705986 0
vt -0 -26.0705986 0
vt -2.20000005 -27.3364754 0
vt 0 -27.3364754 0
vt -0 26.0705986 0
vt -2.20000005 26.0705986 0
vt -2.20000005 24.8047218 0
vt -0 24.8047218 0
vt -2.20000005 23.5388451 0
vt -0 23.5388451 0
vt -2.20000005 22.2729664 0
vt -0 22.2729664 0
vt -2.20000005 21.0070896 0
vt -0 21.0070896 0
vt -2.20000005 19.7412128 0
vt -0 19.7412128 0
vt -2.20000005 18.4753342 0
vt -0 18.4753342 0
vt -2.20000005 17.2094574 0
vt -0 17.2094574 0
vt -2.20000005 15.9435806 0
vt -0 15.9435806 0
vt -2.20000005 14.6777029 0
vt -0 14.6777029 0
vt -2.20000005 13.4118261 0
vt -0 13.4118261 0
vt -2.20000005 12.1459484 0
vt -0 12.1459484 0
vt -2.20000005 10.8800707 0
vt -0 10.8800707 0
vt -2.20000005 9.61419392 0
vt -0 9.61419392 0
vt -2.20000005 8.34831619 0
vt -0 8.34831619 0
vt -2.20000005 7.08243895 0
vt -0 7.08243895 0
vt -2.20000005 5.81656218 0
vt -0 5.81656218 0
vt -2.20000005 4.55068398 0
vt -0 4.55068398 0
vt -2.20000005 3.28480697 0
vt -0 3.28480697 0
vt -2.20000005 2.01892996 0
vt -0 2.01892996 0
vt -7.87315702 5.2963438 0
vt 8.28879261 6.61693811 0
vt -8.2613554 6.5 0
vt -8.2613554 10.5 0
vt -8.5 6.5 0
vt -8.5 10.5 0
vt -7.31065893 4.16361189 0
vt -6.58631706 3.12687898 0
vt -5.71616602 2.2090981 0
vt -4.71946907 1.43058598 0
vt -3.6182909 0.808578014 0
vt -2.437011 0.356844991 0
vt -1.20177996 0.0853860006 0
vt 0.0600560009 0.000211999999 0
vt 1.32056296 0.103207998 0
vt 2.55183506 0.392093986 0
vt 3.726614 0.860475004 0
vt 4.818892 1.49798107 0
vt 5.80448914 2.29049897 0
vt 6.66158485 3.22048402 0
vt 7.37120485 4.26734924 0
vt 7.91763973 5.40791702 0
vt 8.4764452 7.86764622 0
vt 8.4764452 9.13235378 0
vt 8.28879261 10.3830624 0
vt 7.91763973 11.5920839 0
vt 7.37120485 12.7326517 0
vt 6.66158485 13.7795153 0
vt 5.80448914 14.7095013 0
vt 4.818892 15.5020189 0
vt 3.726614 16.1395245 0
vt 2.55183506 16.6079063 0
vt 1.32056296 16.8967915 0
vt 0.0600560009 16.9997883 0
vt -1.20177996 16.9146137 0
vt -2.437011 16.6431561 0
vt -3.6182909 16.1914215 0
vt -4.71946907 15.5694141 0
vt -5.71616602 14.7909021 0
vt -6.58631706 13.8731203 0
vt -7.31065893 12.8363886 0
vt -7.87315702 11.7036552 0
vt 2 -5.44426298 0
vt 1.34881604 -5.64098406 0
vt 2 -8.5 0
vt 0.679078996 -5.76010799 0
vt -2 -8.5 0
vt -0.679078996 -5.76010799 0
vt -1.34881604 -5.64098406 0
vt -2 -5.44426298 0
vt 0 5.81756973 0
vt 4 5.81756973 0
vt 0 9.81756973 0
vt 4 9.81756973 0
vt 3.98558497 -5.81756973 0
vt 3.98558497 -8.01756954 0
vt 4.22422886 -5.81756973 0
vt 4.22422886 -9.81756973 0
vt 1.16849303 -9.81756973 0
vt 1.16849303 -8.01756954 0
vt 8.01756954 -1.16849303 0
vt 8.01756954 -3.98558497 0
vt 9.81756973 -1.16849303 0
vt 9.81756973 -4.22422886 0
vt 5.81756973 -4.22422886 0
vt 5.81756973 -3.98558497 0

# 114 vertex normals
vn -34.4826622 0 -93.8666458
vn -50.2424126 0 -86.4621353
vn -49.9999123 0 -86.6025925
vn -34.2019196 0 -93.9692917
vn -64.2786865 0 -76.6045074
vn -64.4788284 0 -76.4361191
vn -76.6043854 0 -64.2788391
vn -76.7602768 0 -64.0925903
vn -86.6024857 0 -50.0000877
vn -86.7143631 0 -49.8058052
vn -93.9692307 0 -34.2021103
vn -94.0393219 0 -34.0089188
vn -98.4807587 0 -17.3649178
vn -98.513031 0 -17.1808968
vn -100 0 -9.99999975e-05
vn -99.999855 0 0.168044999
vn -98.4807892 0 17.3647194
vn -98.4547272 0 17.5118904
vn -93.9692917 0 34.2019196
vn -93.9244843 0 34.3247833
vn -86.6025925 0 49.9999123
vn -86.5464935 0 50.0969582
vn -76.6045074 0 64.2786865
vn -76.544426 0 64.3502197
vn -64.2788391 0 76.6043854
vn -64.2215729 0 76.6523972
vn -50.0000877 0 86.6024857
vn -49.9515419 0 86.6305008
vn -34.2021103 0 93.9692307
vn -34.166996 0 93.9820023
vn -17.3649178 0 98.4807587
vn -17.3465176 0 98.4840012
vn -9.99999975e-05 0 100
vn -23.2553558 0 -97.2583618
vn -17.3647194 0 -98.4807892
vn -11.7081547 0 -99.312233
vn 9.99999975e-05 0 -100
vn 0 100 0
vn 17.3463192 0 98.4840317
vn 17.3647194 0 98.4807892
vn 34.1668053 0 93.9820633
vn 34.2019196 0 93.9692917
vn 49.9513664 0 86.6306076
vn 49.9999123 0 86.6025925
vn 64.2214203 0 76.6525192
vn 64.2786865 0 76.6045074
vn 76.5443039 0 64.3503723
vn 76.6043854 0 64.2788391
vn 86.5463867 0 50.0971336
vn 86.6024857 0 50.0000877
vn 93.9244232 0 34.3249741
vn 93.9692307 0 34.2021103
vn 98.4546967 0 17.5120888
vn 98.4807587 0 17.3649178
vn 99.999855 0 0.168245003
vn 100 0 9.99999975e-05
vn 98.5130615 0 -17.1806984
vn 98.4807892 0 -17.3647194
vn 94.0393829 0 -34.008728
vn 93.9692917 0 -34.2019196
vn 86.7144699 0 -49.8056297
vn 86.6025925 0 -49.9999123
vn 76.7603989 0 -64.0924377
vn 76.6045074 0 -64.2786865
vn 64.478981 0 -76.435997
vn 64.2788391 0 -76.6043854
vn 50.242588 0 -86.4620285
vn 50.0000877 0 -86.6024857
vn 34.4828529 0 -93.8665695
vn 34.2021103 0 -93.9692307
vn 23.2555504 0 -97.258316
vn 17.3649178 0 -98.4807587
vn 11.708353 0 -99.3122025
vn 23.5295086 0 -97.1923981
vn 37.6901588 0 -92.6253281
vn 51.0164185 0 -86.0077057
vn 63.2132607 0 -77.4860229
vn 74.0106812 0 -67.2489319
vn 83.169632 0 -55.5230789
vn 90.4873581 0 -42.5680389
vn 95.801857 0 -28.6706238
vn 98.9954681 0 -14.1384888
vn 99.9975052 0 0.706647038
vn 98.7857742 0 15.5361395
vn 95.3870926 0 30.0216885
vn 89.8767242 0 43.8426132
vn 82.3766403 0 56.6929398
vn 73.052887 0 68.2881851
vn 62.1118698 0 78.3716507
vn 49.7958107 0 86.7201157
vn 36.3773613 0 93.1487427
vn 22.1535797 0 97.5152283
vn 7.43935728 0 99.7228928
vn -7.4395566 0 99.7228775
vn -22.1537743 0 97.5151825
vn -36.3775444 0 93.1486664
vn -49.7959862 0 86.7200089
vn -62.11203 0 78.3715286
vn -73.0530243 0 68.2880325
vn -82.3767471 0 56.6927719
vn -89.8768158 0 43.8424301
vn -95.3871536 0 30.0214977
vn -98.7858047 0 15.5359411
vn -99.9975052 0 0.706447005
vn -98.9954376 0 -14.1386871
vn -95.801796 0 -28.6708145
vn -90.4872665 0 -42.568222
vn -83.1695251 0 -55.5232468
vn -74.0105438 0 -67.2490845
vn -63.2131081 0 -77.486145
vn -51.016243 0 -86.0078125
vn -37.6899757 0 -92.6254044
vn -23.529314 0 -97.1924438
vn 0 -100 -0

# Mesh 'NONE-lib' with 316 faces
g NONE-lib
usemtl MaterialFBXASC032FBXASC03525
f  1/1/1 2/2/2 3/3/1
f  4/3/1 5/2/2 6/4/3
f  7/3/1 8/4/3 9/5/4
f  10/4/3 11/2/2 12/6/5
f  13/6/5 14/2/2 15/7/6
f  16/6/5 17/7/6 18/8/7
f  19/8/7 20/7/6 21/9/8
f  22/8/7 23/9/8 24/10/9
f  25/10/9 26/9/8 27/11/10
f  28/10/9 29/11/10 30/12/11
f  31/12/11 32/11/10 33/13/12
f  34/12/11 35/13/12 36/14/13
f  37/14/13 38/13/12 39/15/14
f  40/14/13 41/15/14 42/16/15
f  43/16/15 44/15/14 45/17/16
f  46/16/15 47/17/16 48/18/17
f  49/18/17 50/17/16 51/19/18
f  52/18/17 53/19/18 54/20/19
f  55/20/19 56/19/18 57/21/20
f  58/20/19 59/21/20 60/22/21
f  61/22/21 62/21/20 63/23/22
f  64/22/21 65/23/22 66/24/23
f  67/24/23 68/23/22 69/25/24
f  70/24/23 71/25/24 72/26/25
f  73/26/25 74/25/24 75/27/26
f  76/26/25 77/27/26 78/28/27
f  79/28/27 80/27/26 81/29/28
f  82/28/27 83/29/28 84/30/29
f  85/30/29 86/29/28 87/31/30
f  88/30/29 89/31/30 90/32/31
f  91/32/31 92/31/30 93/33/32
f  94/32/31 95/33/32 96/34/33
f  97/34/33 98/33/32 99/35/33
f  100/3/1 101/5/4 102/36/34
f  103/36/34 104/5/4 105/37/35
f  106/36/34 107/37/35 108/38/36
f  109/38/36 110/37/35 111/39/37
f  112/38/36 113/39/37 114/40/37
f  115/41/38 116/42/38 117/43/38
f  118/43/38 119/42/38 120/44/38
f  121/44/38 122/42/38 123/45/38
f  124/44/38 125/45/38 126/46/38
f  127/46/38 128/45/38 129/47/38
f  130/46/38 131/47/38 132/48/38
f  133/48/38 134/47/38 135/49/38
f  136/48/38 137/49/38 138/50/38
f  139/50/38 140/49/38 141/51/38
f  142/50/38 143/51/38 144/52/38
f  145/52/38 146/51/38 147/53/38
f  148/52/38 149/53/38 150/54/38
f  151/54/38 152/53/38 153/55/38
f  154/54/38 155/55/38 156/56/38
f  157/56/38 158/55/38 159/57/38
f  160/56/38 161/57/38 162/58/38
f  163/58/38 164/57/38 165/59/38
f  166/58/38 167/59/38 168/60/38
f  169/60/38 170/59/38 171/61/38
f  172/60/38 173/61/38 174/62/38
f  175/62/38 176/61/38 177/63/38
f  178/62/38 179/63/38 180/64/38
f  181/64/38 182/63/38 183/65/38
f  184/64/38 185/65/38 186/66/38
f  187/66/38 188/65/38 189/67/38
f  190/66/38 191/67/38 192/68/38
f  193/68/38 194/67/38 195/69/38
f  196/68/38 197/69/38 198/70/38
f  199/70/38 200/69/38 201/71/38
f  202/70/38 203/71/38 204/72/38
f  205/72/38 206/71/38 207/73/38
f  208/72/38 209/73/38 210/74/38
f  211/74/38 212/73/38 213/75/38
f  214/74/38 215/75/38 216/76/38
f  217/77/33 218/78/39 219/79/33
f  220/79/33 221/78/39 222/80/40
f  223/80/40 224/78/39 225/81/41
f  226/80/40 227/81/41 228/82/42
f  229/82/42 230/81/41 231/83/43
f  232/82/42 233/83/43 234/84/44
f  235/84/44 236/83/43 237/85/45
f  238/84/44 239/85/45 240/86/46
f  241/86/46 242/85/45 243/87/47
f  244/86/46 245/87/47 246/88/48
f  247/88/48 248/87/47 249/89/49
f  250/88/48 251/89/49 252/90/50
f  253/90/50 254/89/49 255/91/51
f  256/90/50 257/91/51 258/92/52
f  259/92/52 260/91/51 261/93/53
f  262/92/52 263/93/53 264/94/54
f  265/94/54 266/93/53 267/95/55
f  268/94/54 269/95/55 270/96/56
f  271/96/56 272/95/55 273/97/57
f  274/96/56 275/97/57 276/98/58
f  277/98/58 278/97/57 279/99/59
f  280/98/58 281/99/59 282/100/60
f  283/100/60 284/99/59 285/101/61
f  286/100/60 287/101/61 288/102/62
f  289/102/62 290/101/61 291/103/63
f  292/102/62 293/103/63 294/104/64
f  295/104/64 296/103/63 297/105/65
f  298/104/64 299/105/65 300/106/66
f  301/106/66 302/105/65 303/107/67
f  304/106/66 305/107/67 306/108/68
f  307/108/68 308/107/67 309/109/69
f  310/108/68 311/109/69 312/110/69
f  313/108/68 314/110/69 315/111/70
f  316/111/70 317/110/69 318/112/71
f  319/111/70 320/112/71 321/113/72
f  322/113/72 323/112/71 324/114/73
f  325/113/72 326/114/73 327/39/37
f  328/39/37 329/114/73 330/40/37
f  331/115/38 332/116/38 333/117/38
f  334/117/38 335/116/38 336/118/38
f  337/118/38 338/116/38 339/119/38
f  340/118/38 341/119/38 342/120/38
f  343/118/38 344/120/38 345/121/38
f  346/121/38 347/120/38 348/122/38
f  349/121/38 350/122/38 351/123/38
f  352/123/38 353/122/38 354/124/38
f  355/123/38 356/124/38 357/125/38
f  358/125/38 359/124/38 360/126/38
f  361/125/38 362/126/38 363/127/38
f  364/127/38 365/126/38 366/128/38
f  367/127/38 368/128/38 369/129/38
f  370/129/38 371/128/38 372/130/38
f  373/129/38 374/130/38 375/131/38
f  376/131/38 377/130/38 378/132/38
f  379/131/38 380/132/38 381/133/38
f  382/131/38 383/133/38 384/134/38
f  385/134/38 386/133/38 387/135/38
f  388/134/38 389/135/38 390/136/38
f  391/136/38 392/135/38 393/137/38
f  394/136/38 395/137/38 396/138/38
f  397/138/38 398/137/38 399/139/38
f  400/138/38 401/139/38 402/140/38
f  403/140/38 404/139/38 405/141/38
f  406/140/38 407/141/38 408/142/38
f  409/142/38 410/141/38 411/143/38
f  412/142/38 413/143/38 414/144/38
f  415/144/38 416/143/38 417/145/38
f  418/144/38 419/145/38 420/146/38
f  421/144/38 422/146/38 423/147/38
f  424/147/38 425/146/38 426/148/38
f  427/147/38 428/148/38 429/149/38
f  430/149/38 431/148/38 432/150/38
f  433/149/38 434/150/38 435/151/38
f  436/151/38 437/150/38 438/152/38
f  439/151/38 440/152/38 441/153/38
f  442/153/38 443/152/38 444/154/38
f  445/153/38 446/154/38 447/155/38
f  448/155/38 449/154/38 450/156/38
f  451/155/38 452/156/38 453/157/38
f  454/157/38 455/156/38 456/158/38
f  457/157/38 458/158/38 459/159/38
f  460/157/38 461/159/38 462/160/38
f  463/160/38 464/159/38 465/161/38
f  466/160/38 467/161/38 468/162/38
f  469/162/38 470/161/38 471/163/38
f  472/162/38 473/163/38 474/164/38
f  475/164/38 476/163/38 477/165/38
f  478/164/38 479/165/38 480/166/38
f  481/166/38 482/165/38 483/167/38
f  484/166/38 485/167/38 486/168/38
f  487/168/38 488/167/38 489/169/38
f  490/168/38 491/169/38 492/170/38
f  493/170/38 494/169/38 495/171/38
f  496/170/38 497/171/38 498/172/38
f  499/170/38 500/172/38 501/173/38
f  502/173/38 503/172/38 504/174/38
f  505/173/38 506/174/38 507/175/38
f  508/175/38 509/174/38 510/176/38
f  511/175/38 512/176/38 513/177/38
f  514/177/38 515/176/38 516/178/38
f  517/177/38 518/178/38 519/179/38
f  520/179/38 521/178/38 522/180/38
f  523/179/38 524/180/38 525/181/38
f  526/181/38 527/180/38 528/182/38
f  529/181/38 530/182/38 531/183/38
f  532/183/38 533/182/38 534/184/38
f  535/183/38 536/184/38 537/185/38
f  538/186/38 539/187/38 540/185/38
f  541/185/38 542/187/38 543/183/38
f  544/188/74 545/189/75 546/190/74
f  547/190/74 548/189/75 549/191/75
f  550/191/75 551/189/75 552/192/76
f  553/191/75 554/192/76 555/193/76
f  556/193/76 557/192/76 558/194/77
f  559/193/76 560/194/77 561/195/77
f  562/195/77 563/194/77 564/196/78
f  565/195/77 566/196/78 567/197/78
f  568/197/78 569/196/78 570/198/79
f  571/197/78 572/198/79 573/199/79
f  574/199/79 575/198/79 576/200/80
f  577/199/79 578/200/80 579/201/80
f  580/201/80 581/200/80 582/202/81
f  583/201/80 584/202/81 585/203/81
f  586/203/81 587/202/81 588/204/82
f  589/203/81 590/204/82 591/205/82
f  592/205/82 593/204/82 594/206/83
f  595/205/82 596/206/83 597/207/83
f  598/207/83 599/206/83 600/208/84
f  601/207/83 602/208/84 603/209/84
f  604/209/84 605/208/84 606/210/85
f  607/209/84 608/210/85 609/211/85
f  610/211/85 611/210/85 612/212/86
f  613/211/85 614/212/86 615/213/86
f  616/213/86 617/212/86 618/214/87
f  619/213/86 620/214/87 621/215/87
f  622/215/87 623/214/87 624/216/88
f  625/215/87 626/216/88 627/217/88
f  628/217/88 629/216/88 630/218/89
f  631/217/88 632/218/89 633/219/89
f  634/219/89 635/218/89 636/220/90
f  637/219/89 638/220/90 639/221/90
f  640/221/90 641/220/90 642/222/91
f  643/221/90 644/222/91 645/223/91
f  646/223/91 647/222/91 648/224/92
f  649/223/91 650/224/92 651/225/92
f  652/225/92 653/224/92 654/226/93
f  655/225/92 656/226/93 657/227/93
f  658/227/93 659/226/93 660/228/94
f  661/227/93 662/228/94 663/229/94
f  664/230/94 665/231/94 666/232/95
f  667/230/94 668/232/95 669/233/95
f  670/233/95 671/232/95 672/234/96
f  673/233/95 674/234/96 675/235/96
f  676/235/96 677/234/96 678/236/97
f  679/235/96 680/236/97 681/237/97
f  682/237/97 683/236/97 684/238/98
f  685/237/97 686/238/98 687/239/98
f  688/239/98 689/238/98 690/240/99
f  691/239/98 692/240/99 693/241/99
f  694/241/99 695/240/99 696/242/100
f  697/241/99 698/242/100 699/243/100
f  700/243/100 701/242/100 702/244/101
f  703/243/100 704/244/101 705/245/101
f  706/245/101 707/244/101 708/246/102
f  709/245/101 710/246/102 711/247/102
f  712/247/102 713/246/102 714/248/103
f  715/247/102 716/248/103 717/249/103
f  718/249/103 719/248/103 720/250/104
f  721/249/103 722/250/104 723/251/104
f  724/251/104 725/250/104 726/252/105
f  727/251/104 728/252/105 729/253/105
f  730/253/105 731/252/105 732/254/106
f  733/253/105 734/254/106 735/255/106
f  736/255/106 737/254/106 738/256/107
f  739/255/106 740/256/107 741/257/107
f  742/257/107 743/256/107 744/258/108
f  745/257/107 746/258/108 747/259/108
f  748/259/108 749/258/108 750/260/109
f  751/259/108 752/260/109 753/261/109
f  754/261/109 755/260/109 756/262/110
f  757/261/109 758/262/110 759/263/110
f  760/263/110 761/262/110 762/264/111
f  763/263/110 764/264/111 765/265/111
f  766/265/111 767/264/111 768/266/112
f  769/265/111 770/266/112 771/267/112
f  772/267/112 773/266/112 774/268/113
f  775/267/112 776/268/113 777/269/113
f  778/270/114 779/271/114 780/272/114
f  781/272/114 782/271/114 783/273/114
f  784/272/114 785/273/114 786/274/114
f  787/274/114 788/273/114 789/275/114
f  790/270/114 791/276/114 792/271/114
f  793/271/114 794/276/114 795/277/114
f  796/271/114 797/277/114 798/278/114
f  799/278/114 800/279/114 801/271/114
f  802/271/114 803/279/114 804/280/114
f  805/271/114 806/280/114 807/281/114
f  808/281/114 809/282/114 810/271/114
f  811/271/114 812/282/114 813/283/114
f  814/271/114 815/283/114 816/284/114
f  817/284/114 818/285/114 819/271/114
f  820/271/114 821/285/114 822/286/114
f  823/271/114 824/286/114 825/287/114
f  826/287/114 827/288/114 828/271/114
f  829/271/114 830/288/114 831/289/114
f  832/271/114 833/289/114 834/290/114
f  835/290/114 836/291/114 837/271/114
f  838/271/114 839/292/114 840/273/114
f  841/273/114 842/292/114 843/293/114
f  844/273/114 845/293/114 846/294/114
f  847/294/114 848/295/114 849/273/114
f  850/273/114 851/295/114 852/296/114
f  853/273/114 854/296/114 855/297/114
f  856/297/114 857/298/114 858/273/114
f  859/273/114 860/298/114 861/299/114
f  862/273/114 863/299/114 864/300/114
f  865/300/114 866/301/114 867/273/114
f  868/273/114 869/301/114 870/302/114
f  871/273/114 872/302/114 873/303/114
f  874/303/114 875/304/114 876/273/114
f  877/273/114 878/304/114 879/305/114
f  880/273/114 881/305/114 882/306/114
f  883/306/114 884/307/114 885/273/114
f  886/273/114 887/307/114 888/308/114
f  889/273/114 890/308/114 891/309/114
f  892/309/114 893/310/114 894/273/114
f  895/273/114 896/310/114 897/311/114
f  898/312/38 899/313/38 900/314/38
f  901/314/38 902/313/38 903/315/38
f  904/314/38 905/315/38 906/41/38
f  907/314/38 908/41/38 909/316/38
f  910/316/38 911/41/38 912/317/38
f  913/316/38 914/317/38 915/318/38
f  916/318/38 917/319/38 918/316/38
f  919/320/37 920/321/37 921/322/37
f  922/322/37 923/321/37 924/323/37
f  925/324/15 926/325/15 927/326/15
f  928/326/15 929/325/15 930/327/15
f  931/327/15 932/325/15 933/328/15
f  934/328/15 935/325/15 936/329/15
f  937/330/56 938/331/56 939/332/56
f  940/332/56 941/331/56 942/333/56
f  943/333/56 944/331/56 945/334/56
f  946/334/56 947/331/56 948/335/56

